<svg width="63" height="78" viewBox="0 0 63 78" fill="none" xmlns="http://www.w3.org/2000/svg">
<path d="M1 31.4C1 50.9429 20.8197 69.5 32 77L32 1C16.5 1 1 11.8571 1 31.4Z" fill="#CADAE0"/>
<g filter="url(#filter0_b)">
<path d="M32 77C28.5 77 1 52.1 1 31.5C1 10.9 16.75 1 32 1" stroke="#01B0E8" stroke-linejoin="round"/>
</g>
<path d="M62 31.4C62 50.9429 42.8197 69.5 32 77V1C47 1 62 11.8571 62 31.4Z" fill="#D7DCD2"/>
<g filter="url(#filter1_b)">
<path d="M32 77C35.4426 77 62 52.1 62 31.5C62 10.9 47 1 32 1" stroke="#85BD70" stroke-linejoin="round"/>
</g>
<path d="M32 45C24.268 45 18 38.9558 18 31.5C18 24.0442 24.268 18 32 18" stroke="#01B0E8"/>
<path d="M32 45C39.1797 45 45 38.9558 45 31.5C45 24.0442 39.1797 18 32 18" stroke="#85BD70"/>
<defs>
<filter id="filter0_b" x="-29.5" y="-29.5" width="91.5" height="137" filterUnits="userSpaceOnUse" color-interpolation-filters="sRGB">
<feFlood flood-opacity="0" result="BackgroundImageFix"/>
<feGaussianBlur in="BackgroundImage" stdDeviation="15"/>
<feComposite in2="SourceAlpha" operator="in" result="effect1_backgroundBlur"/>
<feBlend mode="normal" in="SourceGraphic" in2="effect1_backgroundBlur" result="shape"/>
</filter>
<filter id="filter1_b" x="2" y="-29.5" width="90.5" height="137" filterUnits="userSpaceOnUse" color-interpolation-filters="sRGB">
<feFlood flood-opacity="0" result="BackgroundImageFix"/>
<feGaussianBlur in="BackgroundImage" stdDeviation="15"/>
<feComposite in2="SourceAlpha" operator="in" result="effect1_backgroundBlur"/>
<feBlend mode="normal" in="SourceGraphic" in2="effect1_backgroundBlur" result="shape"/>
</filter>
</defs>
</svg>
