<svg width="28" height="70" viewBox="0 0 28 70" fill="none" xmlns="http://www.w3.org/2000/svg">
<path d="M25.9709 38.2429L26.0724 39.4715M26.0724 39.4715L27.1665 39.8076M26.0724 39.4715L26.982 41.1878M26.0724 39.4715L26.0394 41.1378M26.0724 39.4715L25.1641 40.8688M26.0724 39.4715L24.9954 39.859" stroke="black" stroke-width="0.3" stroke-linecap="round"/>
<path d="M3.35462 38.3216L3.20863 39.5458M3.20863 39.5458L2.103 39.842M3.20863 39.5458L2.23738 41.228M3.20863 39.5458L3.18113 41.2121M3.20863 39.5458L4.06563 40.9751M3.20863 39.5458L4.27088 39.9721" stroke="black" stroke-width="0.3" stroke-linecap="round"/>
<path d="M10.5939 16.9338C11.815 15.3783 14.1343 14.8166 15.9588 15.0134C16.4357 15.0648 16.7577 15.2111 16.9627 15.4282C17.3275 15.7573 17.7122 16.2129 18.5779 16.563C19.0891 16.7697 19.3281 17.0468 19.4756 17.3246C20.6138 17.5919 23.3215 19.0307 24.5331 19.7167C27.1449 24.0299 27.7466 33.604 27.721 37.8518C26.4919 38.2368 24.8531 38.0122 24.1874 37.8518C23.7572 36.6697 22.779 30.826 22.3437 28.0519C22.0672 34.9773 22.8479 39.1687 23.2728 40.3987C21.503 40.8193 17.3761 40.8942 13.4685 40.8423C10.9875 40.8093 8.59491 40.7251 6.95014 40.6458C7.93828 38.8246 7.68478 31.491 7.43452 28.0519C7.39577 31.0938 6.53162 35.8526 6.10439 37.8518C5.14958 38.546 2.30404 38.1411 1.00062 37.8518C0.956537 30.446 3.27723 23.5128 4.44308 20.9719C5.63858 20.09 8.37163 18.7494 9.58872 18.1893C9.95776 17.6876 10.3316 17.2326 10.5939 16.9338Z" fill="#FFA3A3"/>
<path d="M10.5939 16.9338C11.815 15.3783 14.1343 14.8166 15.9588 15.0134C16.4357 15.0648 16.7577 15.2111 16.9627 15.4282M10.5939 16.9338C11.0468 17.424 11.684 18.1441 12.3435 18.9408M10.5939 16.9338C10.3316 17.2326 9.95776 17.6876 9.58872 18.1893M16.9627 15.4282C17.3275 15.7573 17.7122 16.2129 18.5779 16.563C19.0891 16.7697 19.3281 17.0468 19.4756 17.3246M16.9627 15.4282C17.4996 15.9968 17.2345 17.0516 16.8517 18.1629M13.1145 28.6257C14.5833 25.9851 18.2144 22.9092 19.8463 21.7013C18.9748 20.7313 17.7704 19.974 17.2771 19.7167C18.4873 19.3679 20.2205 19.5714 20.9358 19.7167C20.5113 19.5202 19.973 18.4755 19.7568 17.9777C19.6573 17.7861 19.598 17.5551 19.4756 17.3246M13.1145 28.6257C12.866 26.1332 11.8343 23.9113 11.3495 23.1119M13.1145 28.6257C13.2763 30.555 13.5737 35.6992 13.4685 40.8423M15.1592 23.0445C14.9185 23.7451 14.6993 24.3845 14.5378 24.8564C14.0034 24.4021 12.6138 23.6989 11.3495 23.1119M15.1592 23.0445C15.7344 21.3701 16.4326 19.3463 16.7596 18.4259C16.7908 18.338 16.8216 18.2502 16.8517 18.1629M15.1592 23.0445C14.7503 22.0039 13.5118 20.3521 12.3435 18.9408M12.3435 18.9408C13.3973 19.1619 15.7742 19.3159 16.8517 18.1629M11.3495 23.1119C10.6784 22.8003 10.0426 22.5214 9.58872 22.3298C9.77895 21.7591 11.1923 20.3726 11.8752 19.7507C11.0264 19.619 9.16864 20.147 8.34583 20.4275C8.47021 19.8345 9.02379 18.9572 9.58872 18.1893M9.58872 18.1893C8.37163 18.7494 5.63858 20.09 4.44308 20.9719C3.27723 23.5128 0.956537 30.446 1.00062 37.8518C2.30404 38.1411 5.14958 38.546 6.10439 37.8518C6.53162 35.8526 7.39577 31.0938 7.43452 28.0519C7.68478 31.491 7.93828 38.8246 6.95014 40.6458C8.59491 40.7251 10.9875 40.8093 13.4685 40.8423M19.4756 17.3246C20.6138 17.5919 23.3215 19.0307 24.5331 19.7167C27.1449 24.0299 27.7466 33.604 27.721 37.8518C26.4919 38.2368 24.8531 38.0122 24.1874 37.8518C23.7572 36.6697 22.779 30.826 22.3437 28.0519C22.0672 34.9773 22.8479 39.1687 23.2728 40.3987C21.503 40.8193 17.3761 40.8942 13.4685 40.8423" stroke="black" stroke-width="0.3" stroke-linejoin="round"/>
<path d="M9.01367 63.0232V40.7344C10.9744 40.8381 13.8658 40.881 15.0664 40.8895V45.0819L13.1173 63.0232H9.01367Z" fill="#7BB9BD" stroke="black" stroke-width="0.3" stroke-linejoin="round"/>
<path d="M16.8496 37.9678C12.9826 38.0831 9.36319 37.9296 7.56565 37.7922C7.56565 38.1853 7.46329 38.7105 7.41211 38.924C10.2636 39.2194 13.7638 39.2252 16.8322 39.1249M16.8496 37.9678C18.7739 37.9104 20.7595 37.7864 22.6125 37.5608L22.8702 38.7697C21.5262 38.8925 19.3213 39.0436 16.8322 39.1249M16.8496 37.9678L17.4195 38.5377L16.8322 39.1249" stroke="black" stroke-width="0.3" stroke-linejoin="round"/>
<path d="M14.3379 16.3164L14.3606 19.1314" stroke="black" stroke-width="0.3"/>
<path d="M15.0625 5.62085L16.0508 1.1438C16.2286 1.29423 16.6479 2.40119 16.8353 2.93587L16.8823 3.53326L17.144 3.6138C17.4609 4.35484 17.2313 5.73935 17.0769 6.33897C16.6849 6.06511 15.5706 5.74612 15.0625 5.62085Z" fill="#2898FF" stroke="black" stroke-width="0.1"/>
<path d="M13.0098 1L13.9043 5.59985L15.0611 5.64278L16.0218 1H15.2606L14.5988 1.5129L14.3009 1H13.0098Z" fill="#DC0000"/>
<path d="M14.5988 1.5129L14.3009 1H13.0098L13.9043 5.59985L15.0611 5.64278L16.0218 1M14.5988 1.5129L15.2606 1H16.0218M14.5988 1.5129V2.46949M16.0218 1C16.2499 1.42945 16.7358 2.43662 16.8544 3.02965V3.54593H17.1208C17.2777 4.11469 17.4974 5.45932 17.1208 6.28775" stroke="black" stroke-width="0.3" stroke-linecap="round" stroke-linejoin="round"/>
<circle cx="14.3613" cy="10.959" r="5.35" fill="#F6DFBF" stroke="black" stroke-width="0.3"/>
<path d="M16.3936 9.76188C16.6484 9.49007 16.5401 8.80026 16.0379 9.04469C15.8291 9.16388 15.7901 9.21099 15.708 9.26123C15.5166 9.37842 15.2382 9.53912 15.2314 9.66748C15.2788 9.86684 15.3257 9.8055 15.4271 9.97997C15.5538 10.1981 16.0751 10.1016 16.3936 9.76188Z" fill="#6E3838"/>
<path d="M16.2071 9.07812L16.9649 8.57031C17.1758 8.83203 17.5907 10.1252 16.4657 10.5393C15.5657 10.8705 15.0912 10.1849 14.9962 9.82422L15.293 9.65625C15.5462 10.175 15.9428 10.1536 16.1094 10.0781C16.5313 9.875 16.3503 9.32682 16.2071 9.07812Z" fill="white" stroke="black" stroke-width="0.3" stroke-linejoin="round"/>
<path d="M16.291 9.03076L15.2129 9.70264" stroke="black" stroke-width="0.3"/>
<path d="M12.1924 9.76188C11.9376 9.49007 12.0459 8.80026 12.5481 9.04469C12.7568 9.16388 12.7959 9.21099 12.8779 9.26123C13.0693 9.37842 13.3477 9.53912 13.3545 9.66748C13.3072 9.86684 13.2603 9.8055 13.1589 9.97997C13.0321 10.1981 12.5108 10.1016 12.1924 9.76188Z" fill="#6E3838"/>
<path d="M12.3788 9.07812L11.621 8.57031C11.4101 8.83203 10.9952 10.1252 12.1202 10.5393C13.0202 10.8705 13.4947 10.1849 13.5898 9.82422L13.2929 9.65625C13.0398 10.175 12.6432 10.1536 12.4765 10.0781C12.0546 9.875 12.2356 9.32682 12.3788 9.07812Z" fill="white" stroke="black" stroke-width="0.3" stroke-linejoin="round"/>
<path d="M12.2949 9.03076L13.373 9.70264" stroke="black" stroke-width="0.3"/>
<path d="M15.9851 12.439L16.1435 13.305L15.7198 13.69L14.9406 13.8751L13.9081 13.9335L12.9561 13.788L12.7363 13.3483C12.9857 13.3945 13.3477 13.4423 13.752 13.4337C14.0436 13.4274 14.3573 13.3918 14.6666 13.305C14.9087 13.237 15.1481 13.1377 15.3722 12.9967C15.596 12.8559 15.8044 12.6734 15.9851 12.439Z" fill="white"/>
<path d="M15.7198 13.69L16.1435 13.305L15.9851 12.439C15.8044 12.6734 15.596 12.8559 15.3722 12.9967M15.7198 13.69L15.3722 12.9967M15.7198 13.69L14.9406 13.8751M15.3722 12.9967C15.1481 13.1377 14.9087 13.237 14.6666 13.305M14.9406 13.8751L14.6666 13.305M14.9406 13.8751L13.9081 13.9335M14.6666 13.305C14.3573 13.3918 14.0436 13.4274 13.752 13.4337M13.9081 13.9335L13.752 13.4337M13.9081 13.9335L12.9561 13.788L12.7363 13.3483C12.9857 13.3945 13.3477 13.4423 13.752 13.4337" stroke="black" stroke-width="0.3" stroke-linecap="round" stroke-linejoin="round"/>
<path d="M11.7891 7.73096L13.5898 8.99316" stroke="black" stroke-width="0.3" stroke-linecap="round"/>
<path d="M16.8633 7.65991L15.0625 8.92212" stroke="#5C2D2D" stroke-width="0.3" stroke-linecap="round"/>
<path d="M2.97804 29.2616C2.70304 31.8498 1.74381 33.6439 1.26526 34.2168L1.08594 37.7558C1.4005 37.8702 2.28167 38.0532 3.67553 38.1275C5.28469 38.2133 5.80659 37.9045 5.99243 37.7558L6.96653 32.1505C7.06301 31.3867 6.85306 30.6772 6.63738 30.1919C5.81238 27.9272 6.29363 26.04 6.63738 25.3794C5.82856 26.4713 5.58592 27.4823 5.99032 29.747C6.31385 31.5587 5.85552 32.9283 5.58592 33.3867C5.94179 31.7529 5.04671 29.9559 4.55468 29.2616C5.50908 33.9365 4.0222 35.1458 3.15947 35.1661C4.09769 34.5028 3.98176 32.6924 3.80652 31.8701C3.72564 33.1157 2.964 33.8315 2.5933 34.0337C3.11094 32.6587 3.06547 30.2794 2.97804 29.2616Z" fill="#DA0000" stroke="black" stroke-width="0.1" stroke-linejoin="round"/>
<path d="M15.1797 36.0908V34.925H19.161V35.9486L17.2844 36.7163L15.1797 36.0908Z" stroke="black" stroke-width="0.3" stroke-linejoin="round"/>
<path d="M6.20898 37.1074C5.35385 37.6083 2.42039 37.2557 1.02539 37.0215V37.8223C2.97628 38.4148 5.41259 38.3619 6.06861 37.8715L6.20898 37.1074Z" stroke="black" stroke-width="0.3"/>
<circle cx="10.4297" cy="22.0598" r="0.25" fill="black"/>
<circle cx="9.25391" cy="19.6338" r="0.25" fill="black"/>
<circle cx="19.6113" cy="18.9807" r="0.25" fill="black"/>
<circle cx="18.9961" cy="21.668" r="0.25" fill="black"/>
<circle cx="17.2676" cy="35.8206" r="0.25" fill="black"/>
<circle cx="14.5527" cy="38.5574" r="0.25" fill="black"/>
<circle cx="15.9062" cy="38.5574" r="0.25" fill="black"/>
<path d="M23.3379 29.1871C23.7969 31.1078 23.5862 32.9417 23.3949 33.6434L23.7521 35.7041L24.2715 37.7676C25.6321 38.2294 27.0437 38.0598 27.6132 37.8673C27.6132 35.7765 27.4156 31.4911 27.2596 30.8007C27.1098 30.1382 26.7665 29.2697 26.5548 28.9273C26.8721 29.986 26.6232 31.2468 26.459 31.7448C26.5001 31.3846 26.574 30.4922 25.8983 29.5702C25.184 28.5953 25.4333 26.9168 25.5427 26.1372C25.064 27.0672 25.023 28.4349 25.4606 30.1719C25.8108 31.5615 25.4326 32.9592 25.1998 33.4844C25.1441 30.7565 24.2139 28.4275 23.7558 27.604C24.5769 30.2901 24.3763 32.2838 24.1733 32.9449C24.1594 31.5392 23.6106 29.854 23.3379 29.1871Z" fill="#DA0000" stroke="black" stroke-width="0.1" stroke-linejoin="round"/>
<path d="M27.7129 37.1582C26.7068 37.3626 24.8367 37.2512 23.998 37.166L24.1973 37.8535C25.4785 38.2168 27.334 38.041 27.7129 37.8535V37.1582Z" stroke="black" stroke-width="0.3" stroke-linejoin="round"/>
<path d="M15.1426 22.6348C14.7871 21.877 13.5566 20.166 12.7207 19.1543C15.1621 19.4277 15.9746 18.9355 16.5293 18.623L15.1426 22.6348Z" fill="#DA0000"/>
<path d="M20.8254 40.802L21.0666 63.0232H17.1399L15.0625 45.0962V40.9335L16.1199 40.9094L20.8254 40.802Z" fill="#7BB9BD"/>
<path d="M15.0625 45.0962L17.1399 63.0232H21.0666L20.8254 40.802L16.1199 40.9094M15.0625 45.0962V40.9335L16.1199 40.9094M15.0625 45.0962L15.5888 44.8476L16.1199 40.9094" stroke="black" stroke-width="0.3" stroke-linejoin="round"/>
<path d="M10.0705 63.0232H12.4492L12.4478 63.0302C12.2519 63.9849 11.863 65.8804 12.1561 66.7254C12.3906 67.4013 12.3329 67.6494 12.2747 67.6889C12.3329 67.8372 12.4492 68.2344 12.4492 68.6377C12.2221 68.7167 11.5224 68.9701 10.6249 68.9701L10.5716 68.6377C9.90576 68.9615 8.2133 69.2278 6.80137 68.4506C6.77867 68.2759 6.77158 67.9026 6.92481 67.8076C6.96572 67.6206 7.22882 67.3151 7.96419 67.3151C9.42686 67.3151 10.4256 66.4476 10.0705 63.0232Z" fill="#464646"/>
<path d="M12.2747 67.6889C12.3329 67.6494 12.3906 67.4013 12.1561 66.7254C11.8623 65.8783 12.2538 63.9756 12.4492 63.0232H10.0705C10.4256 66.4476 9.42686 67.3151 7.96419 67.3151C7.22882 67.3151 6.96572 67.6206 6.92481 67.8076M12.2747 67.6889C12.3329 67.8372 12.4492 68.2344 12.4492 68.6377C12.2221 68.7167 11.5224 68.9701 10.6249 68.9701L10.5716 68.6377C9.90576 68.9615 8.2133 69.2278 6.80137 68.4506C6.77867 68.2759 6.77158 67.9026 6.92481 67.8076M12.2747 67.6889C8.63067 68.6994 7.18976 68.1891 6.92481 67.8076" stroke="black" stroke-width="0.3" stroke-linejoin="round"/>
<circle cx="10.6973" cy="63.6897" r="0.25" fill="black"/>
<circle cx="10.6973" cy="64.6067" r="0.25" fill="black"/>
<circle cx="10.5879" cy="65.6223" r="0.25" fill="black"/>
<circle cx="10.1973" cy="66.656" r="0.25" fill="black"/>
<path d="M18.0529 63.0232H20.4316L20.4302 63.0302C20.2343 63.9849 19.8454 65.8804 20.1385 66.7254C20.373 67.4013 20.3153 67.6494 20.2571 67.6889C20.3153 67.8372 20.4316 68.2344 20.4316 68.6377C20.2045 68.7167 19.5048 68.9701 18.6073 68.9701L18.554 68.6377C17.8882 68.9615 16.1957 69.2278 14.7838 68.4506C14.7611 68.2759 14.754 67.9026 14.9072 67.8076C14.9481 67.6206 15.2112 67.3151 15.9466 67.3151C17.4093 67.3151 18.408 66.4476 18.0529 63.0232Z" fill="#464646"/>
<path d="M20.2571 67.6889C20.3153 67.6494 20.373 67.4013 20.1385 66.7254C19.8447 65.8783 20.2362 63.9756 20.4316 63.0232H18.0529C18.408 66.4476 17.4093 67.3151 15.9466 67.3151C15.2112 67.3151 14.9481 67.6206 14.9072 67.8076M20.2571 67.6889C20.3153 67.8372 20.4316 68.2344 20.4316 68.6377C20.2045 68.7167 19.5048 68.9701 18.6073 68.9701L18.554 68.6377C17.8882 68.9615 16.1957 69.2278 14.7838 68.4506C14.7611 68.2759 14.754 67.9026 14.9072 67.8076M20.2571 67.6889C16.6131 68.6994 15.1722 68.1891 14.9072 67.8076" stroke="black" stroke-width="0.3" stroke-linejoin="round"/>
<circle cx="18.6797" cy="63.6897" r="0.25" fill="black"/>
<circle cx="18.6797" cy="64.6067" r="0.25" fill="black"/>
<circle cx="18.5703" cy="65.6223" r="0.25" fill="black"/>
<circle cx="18.1797" cy="66.656" r="0.25" fill="black"/>
<path d="M16.2305 48.0456V44.8853H20.0511V48.0456H16.2305Z" fill="#669A9D"/>
<path d="M16.2305 44.8853V48.0456H20.0511V44.8853M16.2305 44.8853H20.0511M16.2305 44.8853L18.1409 46.3091L20.0511 44.8853" stroke="black" stroke-width="0.3" stroke-linejoin="round"/>
</svg>
