<svg width="32" height="66" viewBox="0 0 32 66" fill="none" xmlns="http://www.w3.org/2000/svg">
<path d="M10.4126 60.7295L9.93506 45.2849L15.4981 45.3626L16.8439 42.1272L15.2633 60.2579L10.4126 60.7295Z" fill="#AEE2FF" stroke="black" stroke-width="0.3" stroke-linecap="round" stroke-linejoin="round"/>
<path d="M12.0566 63.2188L12.9074 63.2189L14.3398 63.2188V65.0571H13.4513C13.2842 65.0571 12.9074 65.0571 12.9074 64.5437C12.9074 65.0571 12.4923 65.0571 7.95654 65.0571C9.75043 65.0087 11.4055 63.7241 12.0459 63.2271L12.0566 63.2188Z" fill="#C60000" stroke="black" stroke-width="0.3" stroke-linecap="round" stroke-linejoin="round"/>
<path d="M19.9238 63.2188L20.7746 63.2188L22.207 63.2188V65.0571H21.3185C21.2784 65.0571 20.7746 65.0571 20.7746 64.5437C20.7746 65.0571 19.894 65.0571 15.8237 65.0571C17.6176 65.0087 19.2727 63.7241 19.9131 63.2271L19.9238 63.2188Z" fill="#C60000" stroke="black" stroke-width="0.3" stroke-linecap="round" stroke-linejoin="round"/>
<path d="M22.768 60.627L23.1436 45.3176L18.2482 45.3625L17.6401 41.8464L18.0998 60.627H22.768Z" fill="#AEE2FF" stroke="black" stroke-width="0.3" stroke-linecap="round" stroke-linejoin="round"/>
<path d="M29.0042 34.603L29.4621 35.7477M29.4621 35.7477H30.6067M29.4621 35.7477L30.8356 37.1212M29.4621 35.7477L29.9199 37.3501M29.4621 35.7477L29.0042 37.3501M29.4621 35.7477L28.5464 36.4344" stroke="black" stroke-width="0.3" stroke-linecap="round"/>
<path d="M3.19652 36.4604L2.5836 37.53M2.5836 37.53L1.45014 37.3705M2.5836 37.53L1.03201 38.6987M2.5836 37.53L1.90687 39.053M2.5836 37.53L2.81363 39.1807M2.5836 37.53L3.39464 38.3377" stroke="black" stroke-width="0.3" stroke-linecap="round"/>
<path d="M16.396 18.0929V15.1614" stroke="black" stroke-width="0.3"/>
<circle cx="16.4995" cy="10.2822" r="5.35" fill="#F6DFBF" stroke="black" stroke-width="0.3"/>
<ellipse cx="16.4988" cy="5.93707" rx="4.30207" ry="0.90069" fill="black"/>
<path d="M13.4868 2C13.4868 0.895431 14.3822 0 15.4868 0H17.5094C18.614 0 19.5094 0.89543 19.5094 2V5.49422H13.4868V2Z" fill="black"/>
<path d="M15.849 9.07411C15.849 9.74126 15.3082 10.2821 14.6411 10.2821C13.9739 10.2821 13.4331 9.74126 13.4331 9.07411C13.4331 8.40697 13.9739 8.2688 14.6411 8.2688C15.3082 8.2688 15.849 8.40697 15.849 9.07411Z" fill="white"/>
<path d="M19.5678 9.07411C19.5678 9.74126 19.027 10.2821 18.3598 10.2821C17.6927 10.2821 17.1519 9.74126 17.1519 9.07411C17.1519 8.40697 17.6927 8.2688 18.3598 8.2688C19.027 8.2688 19.5678 8.40697 19.5678 9.07411Z" fill="white"/>
<circle cx="14.6399" cy="9.27555" r="0.483189" fill="#6E3838"/>
<circle cx="18.3582" cy="9.27555" r="0.483189" fill="#6E3838"/>
<path d="M14.978 12.6715C15.6885 12.8033 17.3133 12.9478 18.2268 11.7622" stroke="black" stroke-width="0.3" stroke-linecap="round"/>
<path d="M1.56201 35.5699L7.26985 18.8608C8.41142 18.0068 11.5123 17.3455 14.2955 17.3455L14.5614 16.5277L16.3257 18.2643L18.0349 16.3716L18.1754 17.3455C20.0784 17.2214 23.1457 17.6658 24.2875 18.4927L30.9985 33.7055L26.8923 35.3186L25.1979 31.6522L24.0744 45.2666H18.0977L17.4733 40.6279L15.5108 45.2666H8.11706V31.177L5.20045 37.3653L1.56201 35.5699Z" fill="#CFB6A0"/>
<path d="M9.98015 27.1581L8.11706 31.177M8.11706 31.177L5.20045 37.3653L1.56201 35.5699L7.26985 18.8608C8.41142 18.0068 11.5123 17.3455 14.2955 17.3455M8.11706 31.177V45.2666H15.5108L17.4733 40.6279L18.0977 45.2666H24.0744L25.1979 31.6522M14.2955 17.3455L16.3257 19.9343L18.1754 17.3455M14.2955 17.3455L14.5614 16.5277L16.3257 18.2643L18.0349 16.3716L18.1754 17.3455M18.1754 17.3455C20.0784 17.2214 23.1457 17.6658 24.2875 18.4927L30.9985 33.7055L26.8923 35.3186L22.9148 26.712" stroke="black" stroke-width="0.3" stroke-linecap="round" stroke-linejoin="round"/>
<path d="M16.3198 19.9001L19.6192 32.0846L17.3262 41.239" stroke="black" stroke-width="0.3" stroke-linejoin="round"/>
<circle cx="15.7269" cy="32.085" r="0.457852" fill="black"/>
<circle cx="17.5609" cy="32.085" r="0.457852" fill="black"/>
<path d="M14.3546 37.579L15.2703 36.6633H10.2339L11.1496 37.579M14.3546 37.579H11.1496M14.3546 37.579V40.3261H11.1496V37.579" stroke="black" stroke-width="0.3" stroke-linejoin="round"/>
<path d="M20.9917 63.2189V60.7007" stroke="black" stroke-width="0.3"/>
<path d="M13.2104 63.2185V60.4714" stroke="black" stroke-width="0.3"/>
<path d="M13.3882 7.94492C14.1218 7.57159 14.9872 7.52442 15.7904 7.94492" stroke="black" stroke-width="0.3" stroke-linecap="round"/>
<path d="M17.1519 7.94492C17.8855 7.57159 18.7509 7.52442 19.5541 7.94492" stroke="black" stroke-width="0.3" stroke-linecap="round"/>
<circle cx="14.6401" cy="9.44482" r="1.35" fill="#43CFFB" fill-opacity="0.3" stroke="#AAAD00" stroke-width="0.3"/>
<path d="M13.1929 9.39453L13.2905 17.9453C13.2905 18.2786 13.1905 18.9453 12.7905 18.9453C12.3905 18.9453 12.2905 18.2786 12.2905 17.9453V17.3711V17.293" stroke="#AAAD00" stroke-width="0.1"/>
</svg>
