<svg width="32" height="21" viewBox="0 0 32 21" fill="none" xmlns="http://www.w3.org/2000/svg">
<path d="M17.4551 2.35571L22.3036 2.35571" stroke="black"/>
<path d="M9.69727 3.33716L11.6367 3.33716" stroke="black"/>
<path d="M22.7881 2.35568C22.7881 2.62665 22.571 2.84632 22.3032 2.84632C22.0354 2.84632 21.8184 2.62665 21.8184 2.35568C21.8184 2.08471 22.0354 1.86505 22.3032 1.86505C22.571 1.86505 22.7881 2.08471 22.7881 2.35568Z" fill="black"/>
<path d="M17.9404 2.35465C17.9404 2.62562 17.7233 2.84528 17.4556 2.84528C17.1878 2.84528 16.9707 2.62562 16.9707 2.35465C16.9707 2.08368 17.1878 1.86401 17.4556 1.86401C17.7233 1.86401 17.9404 2.08368 17.9404 2.35465Z" fill="black"/>
<path d="M9.21238 3.33707C9.21238 3.60804 8.9953 3.8277 8.72753 3.8277C8.45975 3.8277 8.24268 3.60804 8.24268 3.33707C8.24268 3.0661 8.45975 2.84644 8.72753 2.84644C8.9953 2.84644 9.21238 3.0661 9.21238 3.33707Z" fill="black"/>
<path d="M12.122 3.33609C12.122 3.60706 11.905 3.82673 11.6372 3.82673C11.3694 3.82673 11.1523 3.60706 11.1523 3.33609C11.1523 3.06512 11.3694 2.84546 11.6372 2.84546C11.905 2.84546 12.122 3.06512 12.122 3.33609Z" fill="black"/>
<path d="M19.3937 2.38924L26.1816 15.1125" stroke="black"/>
<path d="M15.5153 15.112L21.3335 6.28052L10.4243 6.28052L8.24254 10.2389L5.8183 15.112L15.5153 15.112ZM15.5153 15.112L8.7274 3.33676L9.6971 3.33676" stroke="black" stroke-linejoin="round"/>
<path d="M26.666 15.1154C26.666 15.3864 26.4489 15.606 26.1811 15.606C25.9134 15.606 25.6963 15.3864 25.6963 15.1154C25.6963 14.8444 25.9134 14.6248 26.1811 14.6248C26.4489 14.6248 26.666 14.8444 26.666 15.1154Z" fill="black"/>
<path d="M31.4997 15.113C31.4997 18.0941 29.1131 20.5006 26.1815 20.5006C23.2499 20.5006 20.8633 18.0941 20.8633 15.113C20.8633 12.1319 23.2499 9.72534 26.1815 9.72534C29.1131 9.72534 31.4997 12.1319 31.4997 15.113Z" stroke="black"/>
<path d="M11.1364 15.1128C11.1364 18.0939 8.74979 20.5004 5.8182 20.5004C2.88661 20.5004 0.5 18.0939 0.5 15.1128C0.5 12.1317 2.88661 9.72522 5.8182 9.72522C8.74979 9.72522 11.1364 12.1317 11.1364 15.1128Z" stroke="black"/>
</svg>
