<svg width="25" height="23" viewBox="0 0 25 23" fill="none" xmlns="http://www.w3.org/2000/svg">
<path d="M24.8246 7.88385C24.7276 7.62628 24.4415 7.49977 24.1857 7.60127L22.3839 8.31618C22.1281 8.41769 21.9993 8.70878 22.0963 8.96635C22.1933 9.22391 22.4793 9.35043 22.7352 9.24892L24.537 8.53401C24.7928 8.43251 24.9216 8.14142 24.8246 7.88385Z" fill="black"/>
<path d="M0.175461 7.88385C0.272458 7.62628 0.558478 7.49977 0.814304 7.60127L2.6161 8.31618C2.87193 8.41769 3.00069 8.70878 2.90369 8.96635C2.80669 9.22391 2.52067 9.35043 2.26485 9.24892L0.463045 8.53401C0.207219 8.43251 0.0784631 8.14142 0.175461 7.88385Z" fill="black"/>
<rect x="16.0752" y="12" width="4.87114" height="1" rx="0.5" fill="black"/>
<rect x="4.38428" y="12" width="4.87114" height="1" rx="0.5" fill="black"/>
<path d="M23.3816 19.5V11.5L22.5697 9M23.3816 19.5H1.46143V11.5L2.38926 9M23.3816 19.5V20M2.38926 9L5.35834 1H19.9718L22.5697 9M2.38926 9H22.5697" stroke="black" stroke-linejoin="round"/>
<path d="M20.459 19V21C20.459 21.5523 20.9067 22 21.459 22H22.3817C22.934 22 23.3817 21.5523 23.3817 21V19" stroke="black"/>
<path d="M1.46143 19V21C1.46143 21.5523 1.90914 22 2.46143 22H3.38411C3.9364 22 4.38411 21.5523 4.38411 21V19" stroke="black"/>
</svg>
