<svg width="23" height="25" viewBox="0 0 23 25" fill="none" xmlns="http://www.w3.org/2000/svg">
<path d="M15.7222 20.8638V22.9446C15.7222 23.5275 16.1948 24.0001 16.7777 24.0001H17.8333C18.4162 24.0001 18.8888 23.5275 18.8888 22.9446V20.8638" stroke="black"/>
<path d="M4.11133 20.8638V22.9446C4.11133 23.5275 4.58392 24.0001 5.16688 24.0001H6.22244C6.80541 24.0001 7.27799 23.5275 7.27799 22.9446V20.8638" stroke="black"/>
<path d="M1 10.5V18.6975C1 19.8634 1.94518 20.8086 3.11111 20.8086H19.8889C21.0548 20.8086 22 19.8634 22 18.6975V10.5M1 10.5H11.5M1 10.5V4.5M22 10.5H11.5M22 10.5V4.5M11.5 10.5V4.5M1 4.5V3.11111C1 1.94518 1.94288 1 3.10882 1C5.33792 1 8.88607 1 11.5 1C14.1139 1 17.6621 1 19.8912 1C21.0571 1 22 1.94518 22 3.11111V4.5M1 4.5H11.5M22 4.5H11.5" stroke="black" stroke-linejoin="round"/>
<path d="M5.1665 13.5453H8.33317" stroke="black" stroke-linecap="round"/>
<path d="M14.6665 13.5453H17.8332" stroke="black" stroke-linecap="round"/>
</svg>
